# xmcd CD database file
#
# Track frame offsets:
#	150
#	18300
#	37923
#	56958
#	81225
#	102038
#	119848
#	140170
#	162195
#	181820
#
# Disc length: 2699 seconds
#
# Revision: 1
# Processed by: cddbd v1.5.2PL0 Copyright (c) Steve Scherf et al.
# Submitted via: CDex 1.70beta1
#
DISCID=850a890a
DTITLE=世良　公則 - Fun to Fun
DYEAR=1991
DGENRE=J-ROCK
TTITLE0=SURRENDER
TTITLE1=風の声を聞け
TTITLE2=BAD BOY SHUFFLE
TTITLE3=ONE NIGHT
TTITLE4=TWO HEARTS
TTITLE5=REBELS（反逆者たち）
TTITLE6=DEAD OR ALIVE（）
TTITLE7=CRAZY LOVE
TTITLE8=WOMAN・・・（I LOVE YOU）・・・
TTITLE9=君のいる景色
EXTD=YEAR: 1991
EXTT0=
EXTT1=
EXTT2=
EXTT3=
EXTT4=
EXTT5=
EXTT6=
EXTT7=
EXTT8=
EXTT9=
PLAYORDER=
